<svg xmlns="http://www.w3.org/2000/svg" xmlns:xlink="http://www.w3.org/1999/xlink" width="80" zoomAndPan="magnify" viewBox="0 0 60 30.000001" height="40" preserveAspectRatio="xMidYMid meet" version="1.0"><defs><clipPath id="4595fe3c99"><path d="M 18.441406 2.117188 L 43 2.117188 L 43 26.792969 L 18.441406 26.792969 Z M 18.441406 2.117188 " clip-rule="nonzero"/></clipPath></defs><g clip-path="url(#4595fe3c99)"><path fill="#ffffff" d="M 30.5 10.289062 C 31.019531 10.300781 31.601562 10.460938 32.074219 10.671875 C 31.894531 9.730469 31.648438 8.558594 31.699219 7.632812 C 30.9375 8.308594 30.503906 9.277344 30.5 10.289062 M 30.691406 11.808594 C 31.21875 12.46875 32.003906 12.980469 32.847656 12.4375 C 32.492188 12.433594 31.746094 11.894531 30.691406 11.808594 Z M 27.09375 17.320312 C 29.957031 14.457031 38.121094 14.609375 37.351562 17.210938 C 38.625 15.894531 38.445312 15.316406 37.019531 14.59375 C 34.082031 13.105469 33.222656 10.644531 30.128906 10.699219 C 29.597656 9.460938 29.574219 7.972656 29.90625 6.667969 C 27.855469 7.253906 25.261719 8.910156 23.773438 11.0625 C 25.128906 10.542969 27 10.285156 28.261719 10.703125 C 25.023438 10.71875 21.027344 12.152344 19.523438 15.238281 C 19.894531 13.699219 20.886719 12.414062 22.222656 11.660156 C 23.074219 7.230469 26.964844 3.882812 31.640625 3.882812 C 36.941406 3.882812 41.234375 8.179688 41.234375 13.476562 C 41.234375 18.523438 37.316406 22.660156 32.367188 23.039062 C 29.449219 23.179688 29.410156 18.871094 36.15625 17.851562 C 24.4375 17.65625 26.714844 26.679688 32.671875 26.242188 C 34.5 26.105469 36.433594 25.238281 37.8125 24.242188 C 40.882812 22.023438 42.878906 18.414062 42.878906 14.335938 C 42.878906 7.585938 37.410156 2.117188 30.660156 2.117188 C 23.914062 2.117188 18.445312 7.585938 18.445312 14.335938 C 18.445312 16.535156 19.027344 18.605469 20.046875 20.386719 C 20.996094 17.554688 23.488281 15.5 26.46875 15.121094 C 22.054688 16.46875 21.054688 22.296875 24.765625 25.039062 C 22.117188 19.914062 29.664062 16.316406 33.847656 16.785156 C 31.785156 15.886719 28.941406 16.375 27.09375 17.320312 Z M 27.09375 17.320312 " fill-opacity="1" fill-rule="evenodd"/></g></svg>