<svg xmlns="http://www.w3.org/2000/svg" xmlns:xlink="http://www.w3.org/1999/xlink" width="80" zoomAndPan="magnify" viewBox="0 0 60 30.000001" height="40" preserveAspectRatio="xMidYMid meet" version="1.0"><defs><g/><clipPath id="78140d1216"><path d="M 3.871094 6.285156 L 20.566406 6.285156 L 20.566406 22.980469 L 3.871094 22.980469 Z M 3.871094 6.285156 " clip-rule="nonzero"/></clipPath></defs><g fill="#ffffff" fill-opacity="1"><g transform="translate(21.776128, 15.688103)"><g><path d="M 2.765625 -0.65625 L 1.328125 -0.65625 L 0.953125 0 L -0.40625 0 L 2.015625 -3.78125 L 3.265625 -3.78125 L 4.15625 0 L 2.890625 0 Z M 2.59375 -1.578125 L 2.40625 -2.546875 L 1.84375 -1.578125 Z M 2.59375 -1.578125 "/></g></g></g><g fill="#ffffff" fill-opacity="1"><g transform="translate(25.973625, 15.688103)"><g><path d="M 4.03125 -2.546875 C 4.03125 -2.203125 3.941406 -1.90625 3.765625 -1.65625 C 3.585938 -1.40625 3.335938 -1.222656 3.015625 -1.109375 L 3.65625 0 L 2.328125 0 L 1.796875 -0.953125 L 1.46875 -0.953125 L 1.28125 0 L 0.015625 0 L 0.765625 -3.78125 L 2.46875 -3.78125 C 2.96875 -3.78125 3.351562 -3.671875 3.625 -3.453125 C 3.894531 -3.234375 4.03125 -2.929688 4.03125 -2.546875 Z M 2.75 -2.421875 C 2.75 -2.671875 2.585938 -2.796875 2.265625 -2.796875 L 1.84375 -2.796875 L 1.671875 -1.90625 L 2.1875 -1.90625 C 2.363281 -1.90625 2.5 -1.945312 2.59375 -2.03125 C 2.695312 -2.125 2.75 -2.253906 2.75 -2.421875 Z M 2.75 -2.421875 "/></g></g></g><g fill="#ffffff" fill-opacity="1"><g transform="translate(29.841163, 15.688103)"><g><path d="M 2.15625 0.09375 C 1.769531 0.09375 1.429688 0.0195312 1.140625 -0.125 C 0.847656 -0.269531 0.617188 -0.46875 0.453125 -0.71875 C 0.296875 -0.976562 0.21875 -1.273438 0.21875 -1.609375 C 0.21875 -2.046875 0.316406 -2.4375 0.515625 -2.78125 C 0.722656 -3.125 1.007812 -3.390625 1.375 -3.578125 C 1.738281 -3.773438 2.148438 -3.875 2.609375 -3.875 C 2.972656 -3.875 3.296875 -3.804688 3.578125 -3.671875 C 3.859375 -3.535156 4.066406 -3.347656 4.203125 -3.109375 L 3.28125 -2.390625 C 3.113281 -2.691406 2.863281 -2.84375 2.53125 -2.84375 C 2.332031 -2.84375 2.15625 -2.789062 2 -2.6875 C 1.84375 -2.59375 1.722656 -2.457031 1.640625 -2.28125 C 1.554688 -2.101562 1.515625 -1.90625 1.515625 -1.6875 C 1.515625 -1.457031 1.582031 -1.273438 1.71875 -1.140625 C 1.863281 -1.015625 2.050781 -0.953125 2.28125 -0.953125 C 2.601562 -0.953125 2.882812 -1.097656 3.125 -1.390625 L 3.875 -0.671875 C 3.65625 -0.398438 3.40625 -0.203125 3.125 -0.078125 C 2.851562 0.0351562 2.53125 0.09375 2.15625 0.09375 Z M 2.15625 0.09375 "/></g></g></g><g fill="#ffffff" fill-opacity="1"><g transform="translate(33.703295, 15.688103)"><g><path d="M 2.765625 -0.65625 L 1.328125 -0.65625 L 0.953125 0 L -0.40625 0 L 2.015625 -3.78125 L 3.265625 -3.78125 L 4.15625 0 L 2.890625 0 Z M 2.59375 -1.578125 L 2.40625 -2.546875 L 1.84375 -1.578125 Z M 2.59375 -1.578125 "/></g></g></g><g fill="#ffffff" fill-opacity="1"><g transform="translate(37.900791, 15.688103)"><g><path d="M 4.5 -3.78125 L 3.734375 0 L 2.6875 0 L 1.609375 -1.765625 L 1.25 0 L 0.015625 0 L 0.765625 -3.78125 L 1.8125 -3.78125 L 2.90625 -2.015625 L 3.25 -3.78125 Z M 4.5 -3.78125 "/></g></g></g><g fill="#ffffff" fill-opacity="1"><g transform="translate(42.087469, 15.688103)"><g><path d="M 0.765625 -3.78125 L 2.046875 -3.78125 L 1.28125 0 L 0.015625 0 Z M 0.765625 -3.78125 "/></g></g></g><g fill="#ffffff" fill-opacity="1"><g transform="translate(43.818394, 15.688103)"><g><path d="M 2.90625 -2 L 4.015625 -2 L 3.703125 -0.359375 C 3.492188 -0.210938 3.257812 -0.0976562 3 -0.015625 C 2.738281 0.0546875 2.457031 0.09375 2.15625 0.09375 C 1.769531 0.09375 1.429688 0.0195312 1.140625 -0.125 C 0.847656 -0.269531 0.617188 -0.46875 0.453125 -0.71875 C 0.296875 -0.976562 0.21875 -1.273438 0.21875 -1.609375 C 0.21875 -2.046875 0.320312 -2.4375 0.53125 -2.78125 C 0.738281 -3.125 1.023438 -3.390625 1.390625 -3.578125 C 1.753906 -3.773438 2.175781 -3.875 2.65625 -3.875 C 3.4375 -3.875 4.007812 -3.625 4.375 -3.125 L 3.453125 -2.421875 C 3.335938 -2.578125 3.210938 -2.6875 3.078125 -2.75 C 2.941406 -2.8125 2.78125 -2.84375 2.59375 -2.84375 C 2.375 -2.84375 2.179688 -2.789062 2.015625 -2.6875 C 1.847656 -2.59375 1.722656 -2.457031 1.640625 -2.28125 C 1.554688 -2.101562 1.515625 -1.90625 1.515625 -1.6875 C 1.515625 -1.457031 1.585938 -1.273438 1.734375 -1.140625 C 1.878906 -1.015625 2.082031 -0.953125 2.34375 -0.953125 C 2.46875 -0.953125 2.59375 -0.96875 2.71875 -1 Z M 2.90625 -2 "/></g></g></g><g fill="#ffffff" fill-opacity="1"><g transform="translate(47.815747, 15.688103)"><g><path d="M 4.5 -3.78125 L 3.734375 0 L 2.46875 0 L 2.75 -1.390625 L 1.5625 -1.390625 L 1.28125 0 L 0.015625 0 L 0.765625 -3.78125 L 2.046875 -3.78125 L 1.765625 -2.4375 L 2.953125 -2.4375 L 3.21875 -3.78125 Z M 4.5 -3.78125 "/></g></g></g><g fill="#ffffff" fill-opacity="1"><g transform="translate(52.002427, 15.688103)"><g><path d="M 1.390625 -2.796875 L 0.28125 -2.796875 L 0.484375 -3.78125 L 3.96875 -3.78125 L 3.78125 -2.796875 L 2.671875 -2.796875 L 2.109375 0 L 0.828125 0 Z M 1.390625 -2.796875 "/></g></g></g><g clip-path="url(#78140d1216)"><path fill="#ffffff" d="M 11.949219 11.757812 C 12.296875 11.765625 12.6875 11.875 13.003906 12.015625 C 12.882812 11.386719 12.722656 10.601562 12.753906 9.980469 C 12.242188 10.433594 11.953125 11.082031 11.949219 11.757812 M 12.078125 12.777344 C 12.433594 13.21875 12.960938 13.5625 13.523438 13.199219 C 13.285156 13.199219 12.785156 12.835938 12.078125 12.777344 Z M 9.671875 16.472656 C 11.585938 14.550781 17.054688 14.65625 16.542969 16.398438 C 17.394531 15.515625 17.273438 15.128906 16.316406 14.644531 C 14.351562 13.644531 13.773438 12 11.703125 12.035156 C 11.347656 11.203125 11.332031 10.210938 11.550781 9.335938 C 10.179688 9.726562 8.441406 10.835938 7.445312 12.28125 C 8.351562 11.929688 9.605469 11.757812 10.449219 12.039062 C 8.28125 12.046875 5.605469 13.007812 4.597656 15.074219 C 4.847656 14.042969 5.511719 13.183594 6.40625 12.679688 C 6.976562 9.710938 9.582031 7.46875 12.714844 7.46875 C 16.265625 7.46875 19.140625 10.347656 19.140625 13.894531 C 19.140625 17.277344 16.515625 20.046875 13.203125 20.300781 C 11.246094 20.394531 11.21875 17.511719 15.742188 16.828125 C 7.890625 16.695312 9.417969 22.742188 13.40625 22.445312 C 14.628906 22.355469 15.925781 21.777344 16.847656 21.109375 C 18.90625 19.621094 20.242188 17.203125 20.242188 14.46875 C 20.242188 9.949219 16.578125 6.285156 12.058594 6.285156 C 7.539062 6.285156 3.875 9.949219 3.875 14.46875 C 3.875 15.945312 4.265625 17.332031 4.949219 18.527344 C 5.585938 16.628906 7.253906 15.253906 9.25 14.996094 C 6.292969 15.902344 5.625 19.804688 8.109375 21.640625 C 6.335938 18.207031 11.390625 15.796875 14.191406 16.113281 C 12.8125 15.507812 10.90625 15.835938 9.671875 16.472656 Z M 9.671875 16.472656 " fill-opacity="1" fill-rule="evenodd"/></g></svg>