<svg xmlns="http://www.w3.org/2000/svg" xmlns:xlink="http://www.w3.org/1999/xlink" width="80" zoomAndPan="magnify" viewBox="0 0 60 30.000001" height="40" preserveAspectRatio="xMidYMid meet" version="1.0"><defs><clipPath id="6c14aee4c9"><path d="M 18.328125 2.117188 L 43 2.117188 L 43 26.792969 L 18.328125 26.792969 Z M 18.328125 2.117188 " clip-rule="nonzero"/></clipPath></defs><g clip-path="url(#6c14aee4c9)"><path fill="#ff5757" d="M 30.5 10.363281 C 31.023438 10.375 31.613281 10.539062 32.089844 10.75 C 31.90625 9.800781 31.660156 8.617188 31.707031 7.683594 C 30.941406 8.367188 30.503906 9.34375 30.5 10.363281 M 30.691406 11.898438 C 31.226562 12.5625 32.019531 13.078125 32.871094 12.53125 C 32.507812 12.53125 31.757812 11.984375 30.691406 11.898438 Z M 27.0625 17.460938 C 29.953125 14.570312 38.191406 14.726562 37.414062 17.347656 C 38.699219 16.019531 38.519531 15.4375 37.078125 14.707031 C 34.113281 13.207031 33.246094 10.722656 30.125 10.777344 C 29.589844 9.527344 29.566406 8.027344 29.898438 6.710938 C 27.832031 7.300781 25.214844 8.972656 23.710938 11.148438 C 25.078125 10.621094 26.964844 10.363281 28.238281 10.78125 C 24.972656 10.800781 20.941406 12.246094 19.421875 15.359375 C 19.796875 13.804688 20.800781 12.507812 22.148438 11.746094 C 23.003906 7.277344 26.933594 3.902344 31.652344 3.902344 C 37 3.902344 41.332031 8.234375 41.332031 13.582031 C 41.332031 18.671875 37.378906 22.847656 32.382812 23.234375 C 29.4375 23.375 29.398438 19.027344 36.210938 18 C 24.382812 17.800781 26.679688 26.90625 32.691406 26.464844 C 34.535156 26.328125 36.488281 25.453125 37.878906 24.449219 C 40.976562 22.207031 42.992188 18.5625 42.992188 14.449219 C 42.992188 7.636719 37.472656 2.117188 30.664062 2.117188 C 23.851562 2.117188 18.332031 7.636719 18.332031 14.445312 C 18.332031 16.671875 18.921875 18.753906 19.949219 20.558594 C 20.910156 17.695312 23.421875 15.625 26.429688 15.242188 C 21.976562 16.601562 20.96875 22.484375 24.714844 25.25 C 22.039062 20.078125 29.65625 16.445312 33.875 16.921875 C 31.796875 16.011719 28.925781 16.503906 27.0625 17.460938 Z M 27.0625 17.460938 " fill-opacity="1" fill-rule="evenodd"/></g></svg>